<svg viewBox="0 0 40 40" fill="none" xmlns="http://www.w3.org/2000/svg">
  <path d="M20 4C12 4 6 10 6 18C6 26 12 36 20 36C28 36 34 26 34 18C34 10 28 4 20 4Z" fill="url(#vibeGradient)"/>
  <path d="M20 8C14 8 10 12 10 18C10 24 14 32 20 32C26 32 30 24 30 18C30 12 26 8 20 8Z" fill="#1e1b4b"/>
  <path d="M20 12C16 12 14 14 14 18C14 22 16 28 20 28C24 28 26 22 26 18C26 14 24 12 20 12Z" fill="url(#vibeGradient)"/>
  <defs>
    <linearGradient id="vibeGradient" x1="6" y1="4" x2="34" y2="36">
      <stop stop-color="#818cf8"/>
      <stop offset="1" stop-color="#4338ca"/>
    </linearGradient>
  </defs>
</svg>
